<svg width="100" height="100" viewBox="0 0 100 100" fill="none" xmlns="http://www.w3.org/2000/svg">
<path fill-rule="evenodd" clip-rule="evenodd" d="M100 4.44444C100 1.98985 98.3719 -1.07294e-07 96.3636 0L3.63636 4.95396e-06C1.62806 5.06125e-06 -8.77859e-08 1.98984 0 4.44444L3.25848e-06 95.5556C3.34627e-06 98.0102 1.62806 100 3.63636 100H96.3636C98.3719 100 100 98.0102 100 95.5556V4.44444ZM90.9091 86.6667C90.9091 87.894 90.0951 88.8889 89.0909 88.8889L10.9091 88.8889C9.90494 88.8889 9.09091 87.894 9.09091 86.6667L9.09091 32.7778C9.09091 31.5505 9.90493 30.5556 10.9091 30.5556L89.0909 30.5556C90.0951 30.5556 90.9091 31.5505 90.9091 32.7778V86.6667ZM90.9091 17.2222C90.9091 18.4495 90.0951 19.4444 89.0909 19.4444L10.9091 19.4444C9.90494 19.4444 9.09091 18.4495 9.09091 17.2222V13.3333C9.09091 12.106 9.90494 11.1111 10.9091 11.1111L89.0909 11.1111C90.0951 11.1111 90.9091 12.106 90.9091 13.3333V17.2222Z" fill="#FAF5E5"/>
<path d="M29.0909 81.8182C28.0868 81.8182 27.2727 81.0042 27.2727 80L27.2727 38.1818C27.2727 37.1777 28.0868 36.3636 29.0909 36.3636H34.5455C35.5496 36.3636 36.3636 37.1777 36.3636 38.1818L36.3636 80C36.3636 81.0042 35.5496 81.8182 34.5455 81.8182H29.0909Z" fill="#FAF5E5"/>
<path d="M47.2727 81.8182C46.2686 81.8182 45.4545 81.0042 45.4545 80V47.2727C45.4545 46.2686 46.2686 45.4545 47.2727 45.4545H52.7273C53.7314 45.4545 54.5455 46.2686 54.5455 47.2727V80C54.5455 81.0042 53.7314 81.8182 52.7273 81.8182H47.2727Z" fill="#FAF5E5"/>
<path d="M65.4545 81.8182C64.4504 81.8182 63.6364 81.0042 63.6364 80V51.8182C63.6364 50.814 64.4504 50 65.4545 50H70.9091C71.9132 50 72.7273 50.814 72.7273 51.8182L72.7273 80C72.7273 81.0042 71.9132 81.8182 70.9091 81.8182H65.4545Z" fill="#FAF5E5"/>
</svg>
