<svg width="100" height="100" viewBox="0 0 100 100" fill="none" xmlns="http://www.w3.org/2000/svg">
<path d="M0 0.4C0 0.179086 0.179086 0 0.4 0H99.6C99.8209 0 100 0.179086 100 0.4V6.49654C100 6.71745 99.8209 6.89654 99.6 6.89654H0.400001C0.179087 6.89654 0 6.71745 0 6.49654V0.4Z" fill="#FAF5E5"/>
<path fill-rule="evenodd" clip-rule="evenodd" d="M3.04901 17.2413C1.36538 17.2413 0.000537841 18.4764 0.000537841 20V55.862C0.000537841 57.3855 1.36538 58.6206 3.04901 58.6206H31.2474C32.931 58.6206 34.2958 57.3855 34.2958 55.862V20C34.2958 18.4764 32.931 17.2413 31.2474 17.2413H3.04901ZM26.6746 25.5172C26.6746 24.7554 25.9922 24.1379 25.1504 24.1379H9.14595C8.30414 24.1379 7.62171 24.7554 7.62171 25.5172L7.62171 50.3447C7.62171 51.1065 8.30414 51.724 9.14595 51.724H25.1504C25.9922 51.724 26.6746 51.1065 26.6746 50.3447L26.6746 25.5172Z" fill="#FAF5E5"/>
<path fill-rule="evenodd" clip-rule="evenodd" d="M99.0758 20C99.0758 18.4764 97.711 17.2413 96.0273 17.2413L56.3972 17.2413C54.7136 17.2413 53.3488 18.4764 53.3488 20V45.5172C53.3488 47.0407 54.7136 48.2758 56.3972 48.2758L96.0273 48.2758C97.7109 48.2758 99.0758 47.0407 99.0758 45.5172V20ZM89.9304 41.3792C90.7722 41.3792 91.4546 40.7617 91.4546 39.9999V25.5172C91.4546 24.7554 90.7722 24.1379 89.9304 24.1379H62.4942C61.6523 24.1379 60.9699 24.7554 60.9699 25.5172V39.9999C60.9699 40.7617 61.6523 41.3792 62.4942 41.3792H89.9304Z" fill="#FAF5E5"/>
<path fill-rule="evenodd" clip-rule="evenodd" d="M96.0268 58.6208C97.7104 58.6208 99.0753 59.8558 99.0753 61.3794V97.2414C99.0753 98.7649 97.7104 100 96.0268 100H67.8284C66.1448 100 64.78 98.7649 64.78 97.2414V61.3794C64.78 59.8558 66.1448 58.6208 67.8284 58.6208H96.0268ZM72.4012 66.8966C72.4012 66.1348 73.0836 65.5173 73.9254 65.5173H89.9299C90.7717 65.5173 91.4541 66.1348 91.4541 66.8966V91.7242C91.4541 92.4859 90.7717 93.1035 89.9299 93.1035H73.9254C73.0836 93.1035 72.4011 92.4859 72.4012 91.7242V66.8966Z" fill="#FAF5E5"/>
<path fill-rule="evenodd" clip-rule="evenodd" d="M1.33253e-07 71.7242C5.96595e-08 70.2006 1.36485 68.9656 3.04847 68.9656L42.6786 68.9656C44.3622 68.9656 45.727 70.2006 45.727 71.7242V97.2414C45.727 98.7649 44.3622 100 42.6786 100L3.04847 100C1.36485 100 1.43944e-06 98.7649 1.36584e-06 97.2414L1.33253e-07 71.7242ZM9.14541 93.1035C8.3036 93.1035 7.62118 92.4859 7.62117 91.7242L7.62117 77.2414C7.62117 76.4796 8.3036 75.8621 9.14541 75.8621H36.5816C37.4234 75.8621 38.1059 76.4796 38.1059 77.2414V91.7242C38.1059 92.4859 37.4234 93.1035 36.5816 93.1035L9.14541 93.1035Z" fill="#FAF5E5"/>
</svg>
