<svg width="100" height="100" viewBox="0 0 100 100" fill="none" xmlns="http://www.w3.org/2000/svg">
<path fill-rule="evenodd" clip-rule="evenodd" d="M100 4.44444C100 1.98985 98.3719 -1.07294e-07 96.3636 0L3.63636 4.95396e-06C1.62806 5.06125e-06 -8.77859e-08 1.98984 0 4.44444L3.25848e-06 95.5556C3.34627e-06 98.0102 1.62806 100 3.63636 100H96.3636C98.3719 100 100 98.0102 100 95.5556V4.44444ZM90.9091 86.6667C90.9091 87.894 90.0951 88.8889 89.0909 88.8889L10.9091 88.8889C9.90494 88.8889 9.09091 87.894 9.09091 86.6667L9.09091 32.7778C9.09091 31.5505 9.90493 30.5556 10.9091 30.5556L89.0909 30.5556C90.0951 30.5556 90.9091 31.5505 90.9091 32.7778V86.6667ZM90.9091 17.2222C90.9091 18.4495 90.0951 19.4444 89.0909 19.4444L10.9091 19.4444C9.90494 19.4444 9.09091 18.4495 9.09091 17.2222V13.3333C9.09091 12.106 9.90494 11.1111 10.9091 11.1111L89.0909 11.1111C90.0951 11.1111 90.9091 12.106 90.9091 13.3333V17.2222Z" fill="#FAF5E5"/>
<path d="M13.6364 72.2222H31.8182V77.7778H13.6364V72.2222Z" fill="#FAF5E5"/>
<path d="M13.6364 61.1111H31.8182V66.6667H13.6364V61.1111Z" fill="#FAF5E5"/>
<path d="M13.6364 61.1111H31.8182V66.6667H13.6364V61.1111Z" fill="#FAF5E5"/>
<path fill-rule="evenodd" clip-rule="evenodd" d="M57.2727 44.4444C55.7665 44.4444 54.5455 45.9368 54.5455 47.7778V74.4444C54.5455 76.2854 55.7665 77.7778 57.2727 77.7778H83.6364C85.1426 77.7778 86.3636 76.2854 86.3636 74.4444V47.7778C86.3636 45.9368 85.1426 44.4444 83.6364 44.4444H57.2727ZM64.0909 52.7778C62.5847 52.7778 61.3636 54.2702 61.3636 56.1111V67.7778C61.3636 68.6983 61.9742 69.4444 62.7273 69.4444H78.1818C78.9349 69.4444 79.5455 68.6983 79.5455 67.7778V56.1111C79.5455 54.2702 78.3244 52.7778 76.8182 52.7778H64.0909Z" fill="#FAF5E5"/>
</svg>
