<svg width="100" height="100" viewBox="0 0 100 100" fill="none" xmlns="http://www.w3.org/2000/svg">
<path fill-rule="evenodd" clip-rule="evenodd" d="M91.6667 19.5352C91.6667 17.4682 90.1743 15.7926 88.3333 15.7926L3.33333 15.7926C1.49238 15.7926 -8.04704e-08 17.4682 0 19.5352L2.98695e-06 96.2575C3.06742e-06 98.3244 1.49238 100 3.33333 100H88.3333C90.1743 100 91.6667 98.3244 91.6667 96.2575V19.5352ZM83.3333 88.7723C83.3333 89.8058 82.5871 90.6436 81.6667 90.6436L10 90.6436C9.07953 90.6436 8.33334 89.8058 8.33334 88.7724L8.33333 43.3939C8.33333 42.3605 9.07952 41.5227 10 41.5227L81.6667 41.5227C82.5871 41.5227 83.3333 42.3604 83.3333 43.3939V88.7723ZM83.3333 30.295C83.3333 31.3285 82.5871 32.1663 81.6667 32.1663L10 32.1663C9.07953 32.1663 8.33333 31.3285 8.33333 30.295V27.0203C8.33333 25.9868 9.07953 25.149 10 25.149L81.6667 25.149C82.5871 25.149 83.3333 25.9868 83.3333 27.0203V30.295Z" fill="#FAF5E5"/>
<path fill-rule="evenodd" clip-rule="evenodd" d="M72.8495 54.0687H64.9161C64.6952 54.0687 64.5161 54.2478 64.5161 54.4687V61.3239C64.5161 61.5448 64.6952 61.7239 64.9161 61.7239H72.8495V54.0687ZM71.4604 55.3446H65.9048V60.4481H71.4604V55.3446Z" fill="#FAF5E5"/>
<path fill-rule="evenodd" clip-rule="evenodd" d="M100 46.8135C100 46.5926 99.8209 46.4135 99.6 46.4135H75.4C75.1791 46.4135 75 46.5926 75 46.8135V68.9791C75 69.2 75.1791 69.3791 75.4 69.3791H99.6C99.8209 69.3791 100 69.2 100 68.9791V46.8135ZM95.8333 50.2411H79.1667V65.5515H95.8333V50.2411Z" fill="#FAF5E5"/>
<path d="M1.1136 18.2845C1.1136 17.5676 1.53286 16.9467 2.12253 16.7903L65.0764 0.517876C65.7787 0.331666 66.4736 0.443572 66.6208 1.27938L67.4089 5.7545C67.5547 6.5822 67.1074 7.39338 66.4098 7.56634L2.66785 23.371C1.86637 23.5697 1.1136 22.8438 1.1136 21.8723V18.2845Z" fill="#FAF5E5"/>
<path d="M62.5809 23.4519C61.8683 23.4519 61.2906 22.7664 61.2906 21.9208V3.34628C61.2906 2.76637 61.5667 2.23622 62.0039 1.97688L65.0764 0.0938982C65.9343 -0.415098 67.7422 1.25824 67.7422 2.39639V21.9208C67.7422 22.7664 67.1645 23.4519 66.4519 23.4519H62.5809Z" fill="#FAF5E5"/>
<path d="M46.38 54.5455V57.3828H44.3386C42.4878 57.3828 40.9363 59.0001 40.9363 60.9295V62.3482C40.9363 64.2776 42.1339 65.8665 43.9031 66.3489L50.871 68.2215C51.252 68.335 51.7964 69.0444 51.7964 69.47V70.8887C51.7964 71.2859 51.497 71.598 51.116 71.598H44.3114C44.075 71.597 43.842 71.5388 43.6309 71.4278V68.7606H40.9091V71.598C40.9091 72.5627 41.4535 73.3855 42.1067 73.8111C42.7327 74.2651 43.522 74.4354 44.3114 74.4354H46.3528V77.2727H49.0746V74.4354H51.116C52.994 74.4354 54.5182 72.8464 54.5182 70.8887V69.47C54.5182 67.5406 53.3206 65.9517 51.5514 65.4693L44.5836 63.5966C44.2025 63.4831 43.6581 62.7738 43.6581 62.3482V60.9295C43.6581 60.5323 43.9575 60.2202 44.3386 60.2202H51.1432C51.4426 60.2202 51.7148 60.3337 51.8236 60.3904V63.0575H54.5455V60.2202C54.5455 59.2555 54.0011 58.4326 53.3478 58.007C52.7218 57.5531 51.9325 57.3828 51.1432 57.3828H49.1018V54.5455H46.38Z" fill="#FAF5E5"/>
</svg>
