<svg width="100" height="100" viewBox="0 0 100 100" fill="none" xmlns="http://www.w3.org/2000/svg">
<path fill-rule="evenodd" clip-rule="evenodd" d="M88 15.9111C88 13.7511 86.5673 12 84.8 12L3.2 12C1.43269 12 -7.72516e-08 13.7511 0 15.9111L2.86747e-06 96.0889C2.94472e-06 98.2489 1.43269 100 3.2 100H84.8C86.5673 100 88 98.2489 88 96.0889V15.9111ZM80 88.2667C80 89.3467 79.2837 90.2222 78.4 90.2222L9.6 90.2222C8.71635 90.2222 8 89.3467 8 88.2667L8 40.8445C8 39.7644 8.71634 38.8889 9.6 38.8889L78.4 38.8889C79.2837 38.8889 80 39.7644 80 40.8444V88.2667ZM80 27.1556C80 28.2356 79.2837 29.1111 78.4 29.1111L9.6 29.1111C8.71634 29.1111 8 28.2356 8 27.1556V23.7333C8 22.6533 8.71634 21.7778 9.6 21.7778L78.4 21.7778C79.2837 21.7778 80 22.6533 80 23.7333V27.1556Z" fill="#FAF5E5"/>
<path d="M12 75.5556H76V80.4444H12V75.5556Z" fill="#FAF5E5"/>
<path d="M12 65.7778H76V70.6667H12V65.7778Z" fill="#FAF5E5"/>
<path d="M12 65.7778H76V70.6667H12V65.7778Z" fill="#FAF5E5"/>
<path d="M58.6175 50.0532L94.3446 0.315895C94.471 0.140016 94.7143 0.0966162 94.8937 0.217976L99.6593 3.44276C99.8459 3.56902 99.8914 3.82441 99.76 4.0074L64.046 53.7265L58.6175 50.0532Z" fill="#FAF5E5"/>
<path d="M52 60.4017L58.5771 51.3827L62.4887 54.07L55.9117 63.0889L52.3116 64L52 60.4017Z" fill="#FAF5E5"/>
</svg>
