<svg width="100" height="100" viewBox="0 0 100 100" fill="none" xmlns="http://www.w3.org/2000/svg">
<path d="M56.4094 44.3888C55.7668 44.0763 54.2761 43.7272 52.3095 43.7512C50.2407 43.7797 48.2593 44.2375 46.6863 45.534C45.0918 46.8483 44.4013 47.9546 44.0846 48.7011C43.7725 49.4367 43.75 49.9912 43.75 50.3802V53.2211H38.0682V50.3802C38.0682 49.5854 38.1309 48.1868 38.854 46.4822C39.5724 44.7885 40.867 42.9674 43.0723 41.1497C46.011 38.7274 49.4479 38.1079 52.2339 38.0698C54.6986 38.0396 57.1731 38.4401 58.9012 39.2825L58.9058 39.2848C61.0898 40.3545 66.4773 43.4787 66.4773 50.3802C66.4773 57.3574 61.7847 60.5832 57.9932 63.1897L57.8656 63.2774C55.9835 64.5717 55.1303 65.4152 54.701 66.0763C54.3488 66.6186 54.1667 67.2108 54.1667 68.3726V71.2135H48.4848V68.3726C48.4848 66.4993 48.8047 64.7235 49.9359 62.9816C50.9901 61.3584 52.602 60.0014 54.6462 58.5957C58.6859 55.8177 60.7955 54.1365 60.7955 50.3802C60.7955 47.0087 58.2758 45.3034 56.4094 44.3888Z" fill="#FAF5E5"/>
<path d="M48.4257 74.5279H54.2259C54.4547 74.5279 54.6401 74.7134 54.6401 74.9422V80.7424C54.6401 80.9712 54.4547 81.1567 54.2259 81.1567H48.4257C48.1969 81.1567 48.0114 80.9712 48.0114 80.7424V74.9422C48.0114 74.7134 48.1969 74.5279 48.4257 74.5279Z" fill="#FAF5E5"/>
<path fill-rule="evenodd" clip-rule="evenodd" d="M100 4.44444C100 1.98985 98.3719 0 96.3636 0H3.63636C1.62806 0 0 1.98984 0 4.44444V95.5556C0 98.0102 1.62806 100 3.63636 100H96.3636C98.3719 100 100 98.0102 100 95.5556V4.44444ZM90.9091 86.6667C90.9091 87.894 90.0951 88.8889 89.0909 88.8889L10.9091 88.8889C9.90494 88.8889 9.09091 87.894 9.09091 86.6667L9.09091 32.7778C9.09091 31.5505 9.90494 30.5556 10.9091 30.5556L89.0909 30.5556C90.0951 30.5556 90.9091 31.5505 90.9091 32.7778V86.6667ZM90.9091 17.2222C90.9091 18.4495 90.0951 19.4444 89.0909 19.4444L10.9091 19.4444C9.90494 19.4444 9.09091 18.4495 9.09091 17.2222V13.3333C9.09091 12.106 9.90494 11.1111 10.9091 11.1111L89.0909 11.1111C90.0951 11.1111 90.9091 12.106 90.9091 13.3333V17.2222Z" fill="#FAF5E5"/>
</svg>
