<svg width="100" height="100" viewBox="0 0 100 100" fill="none" xmlns="http://www.w3.org/2000/svg">
<path fill-rule="evenodd" clip-rule="evenodd" d="M100 4.44444C100 1.98985 98.3719 -1.07294e-07 96.3636 0L3.63636 4.95396e-06C1.62806 5.06125e-06 -8.77859e-08 1.98984 0 4.44444L3.25848e-06 95.5556C3.34627e-06 98.0102 1.62806 100 3.63636 100H96.3636C98.3719 100 100 98.0102 100 95.5556V4.44444ZM90.9091 86.6667C90.9091 87.894 90.0951 88.8889 89.0909 88.8889L10.9091 88.8889C9.90494 88.8889 9.09091 87.894 9.09091 86.6667L9.09091 32.7778C9.09091 31.5505 9.90493 30.5556 10.9091 30.5556L89.0909 30.5556C90.0951 30.5556 90.9091 31.5505 90.9091 32.7778V86.6667ZM90.9091 17.2222C90.9091 18.4495 90.0951 19.4444 89.0909 19.4444L10.9091 19.4444C9.90494 19.4444 9.09091 18.4495 9.09091 17.2222V13.3333C9.09091 12.106 9.90494 11.1111 10.9091 11.1111L89.0909 11.1111C90.0951 11.1111 90.9091 12.106 90.9091 13.3333V17.2222Z" fill="#FAF5E5"/>
<path d="M35.9504 77.2727C34.814 77.2727 33.8416 76.8774 33.0331 76.0868C32.2245 75.2963 31.8196 74.3448 31.8182 73.2323V44.9495C31.8182 43.8384 32.2231 42.8875 33.0331 42.097C33.843 41.3064 34.8154 40.9104 35.9504 40.9091H48.3471C48.9325 40.9091 49.4236 41.103 49.8202 41.4909C50.2169 41.8788 50.4146 42.3582 50.4132 42.9293C50.4118 43.5003 50.2135 43.9805 49.8182 44.3697C49.4229 44.7589 48.9325 44.9522 48.3471 44.9495H35.9504V73.2323H48.3471C48.9325 73.2323 49.4236 73.4262 49.8202 73.8141C50.2169 74.202 50.4146 74.6815 50.4132 75.2525C50.4118 75.8235 50.2135 76.3037 49.8182 76.6929C49.4229 77.0821 48.9325 77.2754 48.3471 77.2727H35.9504ZM61.1054 61.1111H46.281C45.6956 61.1111 45.2052 60.9172 44.8099 60.5293C44.4146 60.1414 44.2163 59.6619 44.2149 59.0909C44.2135 58.5199 44.4118 58.0404 44.8099 57.6525C45.208 57.2646 45.6983 57.0707 46.281 57.0707H61.1054L57.2314 53.2828C56.8526 52.9124 56.6632 52.4579 56.6632 51.9192C56.6632 51.3805 56.8526 50.9091 57.2314 50.505C57.6102 50.101 58.0923 49.8902 58.6777 49.8727C59.2631 49.8552 59.7624 50.0492 60.1756 50.4545L67.562 57.6768C67.9752 58.0808 68.1818 58.5522 68.1818 59.0909C68.1818 59.6296 67.9752 60.101 67.562 60.505L60.1756 67.7273C59.7624 68.1313 59.272 68.3252 58.7045 68.3091C58.1371 68.2929 57.646 68.0821 57.2314 67.6767C56.8526 67.2727 56.6722 66.7932 56.6901 66.2384C56.708 65.6835 56.9056 65.2202 57.2831 64.8485L61.1054 61.1111Z" fill="#FAF5E5"/>
</svg>
