<svg width="100" height="100" viewBox="0 0 100 100" fill="none" xmlns="http://www.w3.org/2000/svg">
<path fill-rule="evenodd" clip-rule="evenodd" d="M100 25.3904C100 23.4739 98.3719 21.9202 96.3636 21.9202L3.63636 21.9202C1.62806 21.9202 -8.77859e-08 23.4739 0 25.3904L3.25848e-06 96.5298C3.34627e-06 98.4463 1.62806 100 3.63636 100L96.3636 100C98.3719 100 100 98.4463 100 96.5298V25.3904ZM90.9091 89.5893C90.9091 90.5476 90.0951 91.3245 89.0909 91.3245L10.9091 91.3245C9.90494 91.3245 9.09091 90.5476 9.09091 89.5894L9.09091 47.513C9.09091 46.5548 9.90493 45.7779 10.9091 45.7779L89.0909 45.7779C90.0951 45.7779 90.9091 46.5548 90.9091 47.513V89.5893ZM90.9091 35.3673C90.9091 36.3256 90.0951 37.1024 89.0909 37.1024L10.9091 37.1024C9.90494 37.1024 9.09091 36.3256 9.09091 35.3673V32.3309C9.09091 31.3726 9.90494 30.5957 10.9091 30.5957L89.0909 30.5957C90.0951 30.5957 90.9091 31.3726 90.9091 32.3308V35.3673Z" fill="#FAF5E5"/>
<path d="M13.6364 69.6358H31.8182V73.9736H13.6364V69.6358Z" fill="#FAF5E5"/>
<path d="M13.6364 60.9598H36.3636V65.2975H13.6364V60.9598Z" fill="#FAF5E5"/>
<path d="M74.4818 23.6814C73.5119 23.4333 72.9363 22.4819 73.1962 21.5563L78.8875 1.28646C79.1474 0.36084 80.1444 -0.188466 81.1143 0.0595528L81.9924 0.284092C82.9624 0.532111 83.538 1.48353 83.2781 2.40915L77.5868 22.679C77.3269 23.6046 76.3299 24.1539 75.3599 23.9059L74.4818 23.6814Z" fill="#FAF5E5"/>
<path d="M70.0962 23.9063C69.1262 24.1543 68.1293 23.605 67.8694 22.6794L64.1047 9.27151C63.8448 8.34589 64.4204 7.39447 65.3904 7.14645L66.2685 6.92191C67.2384 6.67389 68.2354 7.2232 68.4953 8.14882L72.2599 21.5567C72.5198 22.4823 71.9442 23.4337 70.9743 23.6818L70.0962 23.9063Z" fill="#FAF5E5"/>
</svg>
