<svg width="100" height="100" viewBox="0 0 100 100" fill="none" xmlns="http://www.w3.org/2000/svg">
<path fill-rule="evenodd" clip-rule="evenodd" d="M100 4.44444C100 1.98985 98.3719 -1.07294e-07 96.3636 0L3.63636 4.95396e-06C1.62806 5.06125e-06 -8.77818e-08 1.98984 0 4.44444L3.25849e-06 95.5556C3.34627e-06 98.0102 1.62806 100 3.63636 100H96.3636C98.3719 100 100 98.0102 100 95.5556V4.44444ZM90.9091 86.6667C90.9091 87.894 90.0951 88.8889 89.0909 88.8889L10.9091 88.8889C9.90494 88.8889 9.09091 87.894 9.09091 86.6667L9.09091 32.7778C9.09091 31.5505 9.90493 30.5556 10.9091 30.5556L89.0909 30.5556C90.0951 30.5556 90.9091 31.5505 90.9091 32.7778V86.6667ZM90.9091 17.2222C90.9091 18.4495 90.0951 19.4444 89.0909 19.4444L10.9091 19.4444C9.90494 19.4444 9.09091 18.4495 9.09091 17.2222V13.3333C9.09091 12.106 9.90494 11.1111 10.9091 11.1111L89.0909 11.1111C90.0951 11.1111 90.9091 12.106 90.9091 13.3333V17.2222Z" fill="#FAF5E5"/>
<path d="M64.0244 59.0909C64.0244 58.6727 64.0057 58.2727 63.9683 57.8545L67.4464 55.2909C68.1943 54.7455 68.4 53.7273 67.9326 52.9273L64.4358 47.0545C64.2116 46.6694 63.8489 46.3784 63.4175 46.2375C62.9861 46.0965 62.5163 46.1156 62.0984 46.2909L58.0781 47.9455C57.3862 47.4727 56.6569 47.0545 55.8903 46.7091L55.348 42.5091C55.2358 41.6 54.4317 40.9091 53.4968 40.9091H46.5219C45.5683 40.9091 44.7642 41.6 44.652 42.5091L44.1097 46.7091C43.3431 47.0545 42.6138 47.4727 41.9219 47.9455L37.9016 46.2909C37.0414 45.9273 36.0317 46.2545 35.5642 47.0545L32.0674 52.9455C31.6 53.7455 31.8056 54.7455 32.5536 55.3091L36.0317 57.8727C35.9537 58.6892 35.9537 59.5108 36.0317 60.3273L32.5536 62.8909C31.8056 63.4364 31.6 64.4545 32.0674 65.2545L35.5642 71.1273C36.0317 71.9273 37.0414 72.2545 37.9016 71.8909L41.9219 70.2364C42.6138 70.7091 43.3431 71.1273 44.1097 71.4727L44.652 75.6727C44.7642 76.5818 45.5683 77.2727 46.5032 77.2727H53.4781C54.413 77.2727 55.2171 76.5818 55.3293 75.6727L55.8716 71.4727C56.6382 71.1273 57.3675 70.7091 58.0594 70.2364L62.0797 71.8909C62.9399 72.2545 63.9496 71.9273 64.4171 71.1273L67.9139 65.2545C68.3813 64.4545 68.1757 63.4545 67.4277 62.8909L63.9496 60.3273C64.0057 59.9091 64.0244 59.5091 64.0244 59.0909ZM50.0748 65.4545C46.4658 65.4545 43.5301 62.6 43.5301 59.0909C43.5301 55.5818 46.4658 52.7273 50.0748 52.7273C53.6837 52.7273 56.6195 55.5818 56.6195 59.0909C56.6195 62.6 53.6837 65.4545 50.0748 65.4545Z" fill="#FAF5E5"/>
</svg>
