<svg width="100" height="100" viewBox="0 0 100 100" fill="none" xmlns="http://www.w3.org/2000/svg">
<path d="M8.11446e-07 2.99226C8.11446e-07 1.33968 1.34213 0 2.99773 0H96.9265C98.5821 0 99.9243 1.33968 99.9243 2.99226V6.47978C99.9243 6.70012 99.7453 6.87875 99.5246 6.87875H0.399699C0.178952 6.87875 8.11446e-07 6.70012 8.11446e-07 6.47978V2.99226Z" fill="#FAF5E5"/>
<path fill-rule="evenodd" clip-rule="evenodd" d="M3.0467 17.1969C1.36435 17.1969 0.000538245 18.4288 0.000538245 19.9484V55.7179C0.000538245 57.2375 1.36435 58.4694 3.0467 58.4694H31.2237C32.906 58.4694 34.2698 57.2375 34.2698 55.7179V19.9484C34.2698 18.4288 32.906 17.1969 31.2237 17.1969H3.0467ZM26.6544 25.4514C26.6544 24.6916 25.9725 24.0756 25.1314 24.0756H9.13902C8.29785 24.0756 7.61594 24.6916 7.61594 25.4514L7.61594 50.2149C7.61594 50.9747 8.29785 51.5906 9.13902 51.5906H25.1314C25.9725 51.5906 26.6544 50.9747 26.6544 50.2149L26.6544 25.4514Z" fill="#FAF5E5"/>
<path fill-rule="evenodd" clip-rule="evenodd" d="M100 20.2064C100 18.6867 98.6362 17.4549 96.9538 17.4549L57.3537 17.4549C55.6714 17.4549 54.3076 18.6867 54.3076 20.2064V45.6577C54.3076 47.1773 55.6714 48.4092 57.3537 48.4092H96.9538C98.6362 48.4092 100 47.1773 100 45.6577V20.2064ZM90.8615 41.5305C91.7027 41.5305 92.3846 40.9145 92.3846 40.1547V25.7094C92.3846 24.9495 91.7027 24.3336 90.8615 24.3336H63.4461C62.6049 24.3336 61.923 24.9495 61.923 25.7094V40.1547C61.923 40.9145 62.6049 41.5305 63.4461 41.5305H90.8615Z" fill="#FAF5E5"/>
<path fill-rule="evenodd" clip-rule="evenodd" d="M96.9533 58.7275C98.6356 58.7275 99.9995 59.9594 99.9995 61.479V97.2485C99.9995 98.7681 98.6356 100 96.9533 100H68.7763C67.094 100 65.7302 98.7681 65.7302 97.2485V61.479C65.7302 59.9594 67.094 58.7275 68.7763 58.7275H96.9533ZM73.3456 66.982C73.3456 66.2222 74.0275 65.6063 74.8686 65.6063H90.861C91.7022 65.6063 92.3841 66.2222 92.3841 66.982V91.7455C92.3841 92.5053 91.7022 93.1213 90.861 93.1213H74.8686C74.0275 93.1213 73.3456 92.5053 73.3456 91.7455V66.982Z" fill="#FAF5E5"/>
<path fill-rule="evenodd" clip-rule="evenodd" d="M9.44598e-07 71.5392C8.7106e-07 70.0195 1.36381 68.7877 3.04616 68.7877L42.6463 68.7877C44.3286 68.7877 45.6924 70.0195 45.6924 71.5392V96.9905C45.6924 98.5101 44.3286 99.742 42.6463 99.742L3.04616 99.742C1.36381 99.742 2.24979e-06 98.5101 2.17625e-06 96.9905L9.44598e-07 71.5392ZM9.13848 92.8633C8.29731 92.8633 7.6154 92.2473 7.6154 91.4875L7.6154 77.0422C7.6154 76.2823 8.29731 75.6664 9.13848 75.6664H36.5539C37.3951 75.6664 38.077 76.2823 38.077 77.0422V91.4875C38.077 92.2473 37.3951 92.8633 36.5539 92.8633L9.13848 92.8633Z" fill="#FAF5E5"/>
<path d="M99.9242 4.41081L99.9243 22.5195C99.9243 22.7521 98.9699 22.9407 97.7925 22.9407H94.062C92.8847 22.9407 91.9303 22.7521 91.9303 22.5195L91.9303 4.41081C91.9303 4.17823 92.8847 3.98968 94.062 3.98968L97.7925 3.98968C98.9698 3.98968 99.9242 4.17823 99.9242 4.41081Z" fill="#FAF5E5"/>
<path d="M99.9242 4.41081L99.9243 22.5195C99.9243 22.7521 98.9699 22.9407 97.7925 22.9407H94.062C92.8847 22.9407 91.9303 22.7521 91.9303 22.5195L91.9303 4.41081C91.9303 4.17823 92.8847 3.98968 94.062 3.98968L97.7925 3.98968C98.9698 3.98968 99.9242 4.17823 99.9242 4.41081Z" fill="#FAF5E5"/>
<path d="M7.99393 4.41081L7.99394 22.5195C7.99394 22.7521 7.03954 22.9407 5.86223 22.9407H2.13172C0.954409 22.9407 7.28188e-06 22.7521 7.19684e-06 22.5195L0 4.41081C-1.01847e-08 4.17823 0.954402 3.98968 2.13172 3.98968L5.86222 3.98968C7.03953 3.98968 7.99393 4.17823 7.99393 4.41081Z" fill="#FAF5E5"/>
</svg>
